<svg width="50" height="50" viewBox="0 0 50 50" fill="none" xmlns="http://www.w3.org/2000/svg">
<circle cx="25" cy="25" r="25" fill="#39B773"/>
<path d="M35.4219 27.6875V32.0781C35.4219 32.6615 35.3646 33.1302 35.25 33.4844C35.1354 33.8281 34.9219 34.1406 34.6094 34.4219C34.3073 34.7031 33.9167 34.974 33.4375 35.2344C32.0521 35.9844 30.7188 36.5312 29.4375 36.875C28.1562 37.2188 26.7604 37.3906 25.25 37.3906C23.4896 37.3906 21.8854 37.1198 20.4375 36.5781C18.9896 36.0365 17.7552 35.25 16.7344 34.2188C15.7135 33.1875 14.9271 31.9375 14.375 30.4688C13.8333 29 13.5625 27.3594 13.5625 25.5469C13.5625 23.7656 13.8281 22.1354 14.3594 20.6562C14.8906 19.1771 15.6719 17.9219 16.7031 16.8906C17.7344 15.8594 18.9896 15.0729 20.4688 14.5312C21.9479 13.9792 23.625 13.7031 25.5 13.7031C27.0417 13.7031 28.4062 13.9115 29.5938 14.3281C30.7812 14.7344 31.7448 15.25 32.4844 15.875C33.224 16.5 33.7812 17.1615 34.1562 17.8594C34.5312 18.5573 34.7188 19.1771 34.7188 19.7188C34.7188 20.3021 34.5 20.8021 34.0625 21.2188C33.6354 21.625 33.1198 21.8281 32.5156 21.8281C32.1823 21.8281 31.8594 21.75 31.5469 21.5938C31.2448 21.4375 30.9896 21.2188 30.7812 20.9375C30.2083 20.0417 29.724 19.3646 29.3281 18.9062C28.9323 18.4479 28.3958 18.0625 27.7188 17.75C27.0521 17.4375 26.1979 17.2812 25.1562 17.2812C24.0833 17.2812 23.125 17.4688 22.2812 17.8438C21.4375 18.2083 20.7135 18.7448 20.1094 19.4531C19.5156 20.151 19.0573 21.0104 18.7344 22.0312C18.4219 23.0521 18.2656 24.1823 18.2656 25.4219C18.2656 28.1094 18.8802 30.1771 20.1094 31.625C21.349 33.0729 23.0729 33.7969 25.2812 33.7969C26.3542 33.7969 27.3594 33.6562 28.2969 33.375C29.2448 33.0938 30.2031 32.6927 31.1719 32.1719V28.4531H27.5781C26.7135 28.4531 26.0573 28.3229 25.6094 28.0625C25.1719 27.8021 24.9531 27.3594 24.9531 26.7344C24.9531 26.224 25.1354 25.8021 25.5 25.4688C25.875 25.1354 26.3802 24.9688 27.0156 24.9688H32.2812C32.9271 24.9688 33.474 25.026 33.9219 25.1406C34.3698 25.2552 34.7292 25.5104 35 25.9062C35.2812 26.3021 35.4219 26.8958 35.4219 27.6875Z" fill="white"/>
</svg>
