<svg width="20" height="20" viewBox="0 0 20 20" fill="none" xmlns="http://www.w3.org/2000/svg">
    <g clip-path="url(#clip0_102_243)">
        <path d="M14.3365 5.52308C14.4566 5.4089 14.5265 5.25166 14.5308 5.08596C14.535 4.92025 14.4732 4.75965 14.3591 4.63948C14.2449 4.51931 14.0876 4.44942 13.9219 4.44519C13.7562 4.44095 13.5956 4.50271 13.4755 4.61689L9.39762 8.4914L5.5231 4.41356C5.40893 4.2934 5.25169 4.22351 5.08599 4.21927C4.92028 4.21503 4.75968 4.2768 4.63951 4.39097C4.51934 4.50515 4.44945 4.66238 4.44521 4.82809C4.44098 4.9938 4.50274 5.1544 4.61692 5.27457L8.49143 9.35241L4.41359 13.2269C4.29342 13.3411 4.22353 13.4983 4.2193 13.664C4.21506 13.8297 4.27682 13.9903 4.391 14.1105C4.50517 14.2307 4.66241 14.3006 4.82812 14.3048C4.99382 14.309 5.15443 14.2473 5.27459 14.1331L9.35243 10.2586L13.2269 14.3364C13.3411 14.4566 13.4984 14.5265 13.6641 14.5307C13.8298 14.535 13.9904 14.4732 14.1105 14.359C14.2307 14.2448 14.3006 14.0876 14.3048 13.9219C14.3091 13.7562 14.2473 13.5956 14.1331 13.4754L10.2586 9.39759L14.3365 5.52308Z" fill="#39B673"/>
    </g>
    <defs>
        <clipPath id="clip0_102_243">
            <rect width="20" height="20" fill="white"/>
        </clipPath>
    </defs>
</svg>
