<svg width="28" height="28" viewBox="0 0 28 28" fill="none" xmlns="http://www.w3.org/2000/svg">
    <path d="M14 26.25C10.7511 26.25 7.63526 24.9594 5.33794 22.6621C3.04062 20.3647 1.75 17.2489 1.75 14C1.75 10.7511 3.04062 7.63526 5.33794 5.33794C7.63526 3.04062 10.7511 1.75 14 1.75C17.2489 1.75 20.3647 3.04062 22.6621 5.33794C24.9594 7.63526 26.25 10.7511 26.25 14C26.25 17.2489 24.9594 20.3647 22.6621 22.6621C20.3647 24.9594 17.2489 26.25 14 26.25ZM14 28C17.713 28 21.274 26.525 23.8995 23.8995C26.525 21.274 28 17.713 28 14C28 10.287 26.525 6.72601 23.8995 4.10051C21.274 1.475 17.713 0 14 0C10.287 0 6.72601 1.475 4.10051 4.10051C1.475 6.72601 0 10.287 0 14C0 17.713 1.475 21.274 4.10051 23.8995C6.72601 26.525 10.287 28 14 28V28Z" fill="#C9C5C5"/>
    <path d="M7.499 16.7423C7.69997 16.6262 7.9388 16.5948 8.16295 16.6548C8.3871 16.7149 8.57821 16.8615 8.69425 17.0625C9.23169 17.9941 10.0051 18.7676 10.9366 19.3053C11.8681 19.8429 12.9247 20.1256 14.0002 20.125C15.0758 20.1256 16.1324 19.8429 17.0639 19.3053C17.9954 18.7676 18.7688 17.9941 19.3062 17.0625C19.3633 16.9622 19.4396 16.8741 19.5308 16.8034C19.622 16.7327 19.7263 16.6808 19.8376 16.6505C19.949 16.6203 20.0653 16.6124 20.1797 16.6273C20.2941 16.6421 20.4045 16.6795 20.5044 16.7372C20.6043 16.7949 20.6919 16.8718 20.762 16.9635C20.8321 17.0551 20.8833 17.1598 20.9128 17.2713C20.9423 17.3829 20.9495 17.4992 20.9338 17.6135C20.9182 17.7278 20.8801 17.838 20.8217 17.9375C20.1307 19.1351 19.1364 20.1296 17.9389 20.8208C16.7414 21.512 15.3829 21.8756 14.0002 21.875C12.6176 21.8756 11.2591 21.512 10.0616 20.8208C8.86409 20.1296 7.86978 19.1351 7.17875 17.9375C7.06272 17.7365 7.03128 17.4977 7.09134 17.2736C7.1514 17.0494 7.29803 16.8583 7.499 16.7423ZM12.2502 11.375C12.2502 12.824 11.4662 14 10.5002 14C9.53425 14 8.75025 12.824 8.75025 11.375C8.75025 9.926 9.53425 8.75 10.5002 8.75C11.4662 8.75 12.2502 9.926 12.2502 11.375ZM19.2502 11.375C19.2502 12.824 18.4662 14 17.5002 14C16.5342 14 15.7502 12.824 15.7502 11.375C15.7502 9.926 16.5342 8.75 17.5002 8.75C18.4662 8.75 19.2502 9.926 19.2502 11.375Z" fill="#C9C5C5"/>
</svg>
