<svg width="25" height="25" viewBox="0 0 25 25" fill="none" xmlns="http://www.w3.org/2000/svg">
    <path d="M4.6875 23.4375H14.0625C14.4768 23.4371 14.874 23.2723 15.1669 22.9794C15.4598 22.6865 15.6246 22.2893 15.625 21.875V19.5312H14.0625V21.875H4.6875V3.125H14.0625V5.46875H15.625V3.125C15.6246 2.71073 15.4598 2.31354 15.1669 2.0206C14.874 1.72767 14.4768 1.56291 14.0625 1.5625H4.6875C4.27323 1.56291 3.87604 1.72767 3.5831 2.0206C3.29017 2.31354 3.12541 2.71073 3.125 3.125V21.875C3.12541 22.2893 3.29017 22.6865 3.5831 22.9794C3.87604 23.2723 4.27323 23.4371 4.6875 23.4375Z" fill="#999999"/>
    <path d="M16.0828 16.0828L18.8844 13.2812H7.8125V11.7188H18.8844L16.0828 8.91719L17.1875 7.8125L21.875 12.5L17.1875 17.1875L16.0828 16.0828Z" fill="#999999"/>
</svg>
