<svg width="30" height="30" viewBox="0 0 30 30" xmlns="http://www.w3.org/2000/svg">
    <path d="M4.06075 2.96995L26.6357 13.7678C26.8636 13.8769 27.056 14.0482 27.1907 14.2619C27.3254 14.4757 27.3968 14.7232 27.3968 14.9758C27.3968 15.2285 27.3254 15.476 27.1907 15.6897C27.056 15.9035 26.8636 16.0748 26.6357 16.1839L4.06075 26.9817C3.82923 27.0927 3.57069 27.1348 3.31592 27.103C3.06116 27.0712 2.8209 26.9668 2.62378 26.8023C2.42665 26.6378 2.28097 26.4201 2.20407 26.1752C2.12717 25.9302 2.12229 25.6683 2.19003 25.4207L4.4486 17.1407C4.47625 17.0392 4.53316 16.9481 4.61223 16.8787C4.6913 16.8094 4.78903 16.7648 4.89325 16.7507L15.8325 15.2646C15.8781 15.2582 15.9213 15.2401 15.9579 15.2122C15.9945 15.1842 16.0233 15.1473 16.0415 15.1049L16.0607 15.0374C16.0692 14.9776 16.0572 14.9167 16.0266 14.8646C15.9961 14.8125 15.9488 14.7722 15.8925 14.7503L15.8336 14.7342L4.90503 13.2492C4.80101 13.2349 4.70351 13.1902 4.62464 13.1209C4.54578 13.0515 4.48904 12.9606 4.46146 12.8592L2.19003 4.53102C2.12229 4.28337 2.12717 4.02148 2.20407 3.77652C2.28097 3.53156 2.42665 3.31387 2.62378 3.14938C2.8209 2.98488 3.06116 2.88051 3.31592 2.8487C3.57069 2.81689 3.82923 2.85898 4.06075 2.96995V2.96995Z" fill="current"/>
</svg>
