<svg width="24" height="24" viewBox="0 0 24 24" fill="none" xmlns="http://www.w3.org/2000/svg">
    <path fill-rule="evenodd" clip-rule="evenodd" d="M9.02399 2.783C9.07335 2.56094 9.19695 2.36234 9.37439 2.21999C9.55183 2.07764 9.7725 2.00004 9.99999 2H14C14.2275 2.00004 14.4481 2.07764 14.6256 2.21999C14.803 2.36234 14.9266 2.56094 14.976 2.783L15.416 4.764C15.816 4.954 16.197 5.174 16.556 5.424L18.494 4.814C18.711 4.74577 18.9448 4.75356 19.1568 4.8361C19.3687 4.91864 19.5463 5.07099 19.66 5.268L21.66 8.732C21.7738 8.92904 21.817 9.159 21.7824 9.3839C21.7479 9.6088 21.6377 9.81519 21.47 9.969L19.973 11.342C20.0087 11.7799 20.0087 12.2201 19.973 12.658L21.47 14.031C21.6377 14.1848 21.7479 14.3912 21.7824 14.6161C21.817 14.841 21.7738 15.071 21.66 15.268L19.66 18.732C19.5463 18.929 19.3687 19.0814 19.1568 19.1639C18.9448 19.2464 18.711 19.2542 18.494 19.186L16.557 18.576C16.197 18.826 15.816 19.046 15.417 19.236L14.977 21.216C14.9278 21.4384 14.8041 21.6374 14.6265 21.7799C14.4488 21.9225 14.2278 22.0001 14 22H9.99999C9.7725 22 9.55183 21.9224 9.37439 21.78C9.19695 21.6377 9.07335 21.4391 9.02399 21.217L8.58398 19.236C8.18398 19.046 7.80298 18.826 7.44398 18.576L5.50599 19.186C5.28898 19.2542 5.05519 19.2464 4.8432 19.1639C4.63122 19.0814 4.45372 18.929 4.33999 18.732L2.33999 15.268C2.2262 15.071 2.18301 14.841 2.21756 14.6161C2.2521 14.3912 2.36231 14.1848 2.52999 14.031L4.02699 12.658C3.99128 12.2201 3.99128 11.7799 4.02699 11.342L2.52999 9.97C2.36231 9.81619 2.2521 9.6098 2.21756 9.3849C2.18301 9.16 2.2262 8.93004 2.33999 8.733L4.33999 5.269C4.45372 5.07199 4.63122 4.91964 4.8432 4.8371C5.05519 4.75456 5.28898 4.74677 5.50599 4.815L7.44299 5.425C7.80299 5.175 8.18399 4.955 8.58299 4.765L9.02298 2.785L9.02399 2.783ZM12 15C12.7956 15 13.5587 14.6839 14.1213 14.1213C14.6839 13.5587 15 12.7956 15 12C15 11.2044 14.6839 10.4413 14.1213 9.87868C13.5587 9.31607 12.7956 9 12 9C11.2043 9 10.4413 9.31607 9.87866 9.87868C9.31606 10.4413 8.99999 11.2044 8.99999 12C8.99999 12.7956 9.31606 13.5587 9.87866 14.1213C10.4413 14.6839 11.2043 15 12 15V15Z" fill="#EDEDED"/>
</svg>
